<?xml version="1.0" encoding="utf-8"?>
<!-- Generator: Adobe Illustrator 28.0.0, SVG Export Plug-In . SVG Version: 6.00 Build 0)  -->
<svg version="1.1" xmlns="http://www.w3.org/2000/svg" xmlns:xlink="http://www.w3.org/1999/xlink" x="0px" y="0px"
	 viewBox="0 0 700 206.19" style="enable-background:new 0 0 700 206.19;" xml:space="preserve">
<style type="text/css">
	.st0{fill:#FFFFFF;}
	.st1{fill:none;stroke:#FFFFFF;stroke-width:3;stroke-miterlimit:10;}
	.st2{display:none;}
	.st3{display:inline;fill:#606060;}
	.st4{fill:#6450DC;}
	.st5{fill:none;}
	.st6{fill:#D7DCF0;}
	.st7{fill:#0F1923;}
</style>
<g id="Notes">
</g>
<g id="BG__x28_Don_x27_t_Export_x29_" class="st2">
	<rect class="st3" width="700" height="206.19"/>
</g>
<g id="Logo">
	<g>
		<path class="st0" d="M92.64,206.19c-13.67,0-26.17-2.52-37.5-7.57c-11.34-5.05-21.13-12.16-29.39-21.34
			c-8.26-9.18-14.61-19.93-19.06-32.28C2.23,132.67,0,119.2,0,104.61v-3.17c0-14.5,2.23-27.9,6.68-40.19
			c4.45-12.3,10.78-23.03,19-32.21c8.21-9.18,17.98-16.31,29.32-21.4C66.33,2.55,78.83,0,92.5,0c13.58,0,26.06,2.55,37.44,7.64
			s21.29,12.23,29.73,21.4c8.44,9.18,14.96,19.91,19.55,32.21c4.59,12.3,6.88,25.7,6.88,40.19v3.17c0,14.59-2.29,28.06-6.88,40.4
			c-4.59,12.34-11.08,23.1-19.47,32.28c-8.4,9.18-18.29,16.29-29.67,21.34C118.7,203.67,106.22,206.19,92.64,206.19z M92.64,172.47
			c10.74,0,19.8-2.84,27.19-8.53c7.38-5.69,12.96-13.6,16.72-23.74c3.76-10.14,5.64-22,5.64-35.58v-3.44c0-13.3-1.9-25-5.71-35.1
			c-3.81-10.09-9.41-17.98-16.79-23.68c-7.39-5.69-16.45-8.53-27.19-8.53c-11.01,0-20.1,2.82-27.25,8.47
			c-7.16,5.64-12.48,13.49-15.97,23.54c-3.49,10.05-5.23,21.82-5.23,35.31v3.44c0,13.58,1.77,25.46,5.3,35.65
			c3.53,10.19,8.9,18.1,16.1,23.74C72.66,169.65,81.72,172.47,92.64,172.47z"/>
		<path class="st0" d="M390.92,199.78v-19.41c0-1.76,1.31-3.26,3.05-3.49l15.09-2.03c1.75-0.24,3.05-1.73,3.05-3.49V34.97
			c0-1.76-1.31-3.26-3.06-3.49l-15.09-2.02c-1.75-0.23-3.06-1.73-3.06-3.49V6.41c0-1.95,1.58-3.52,3.52-3.52h155.1
			c1.95,0,3.52,1.58,3.52,3.52v49.8c0,1.95-1.58,3.52-3.52,3.52H523c-1.89,0-3.45-1.49-3.52-3.38l-0.65-16.22
			c-0.08-1.89-1.63-3.38-3.52-3.38h-55.63c-1.95,0-3.52,1.58-3.52,3.52v44.02c0,1.95,1.58,3.52,3.52,3.52h62.05
			c1.95,0,3.52,1.58,3.52,3.52v26.68c0,1.95-1.58,3.52-3.52,3.52h-62.05c-1.95,0-3.52,1.58-3.52,3.52v46.29
			c0,1.76,1.3,3.26,3.05,3.49l14.96,2.03c1.75,0.24,3.05,1.73,3.05,3.49v19.41c0,1.95-1.58,3.52-3.52,3.52h-79.26
			C392.49,203.3,390.92,201.73,390.92,199.78z"/>
		<path class="st0" d="M553.06,199.78v-19.93c0-1.95,1.58-3.52,3.52-3.52h139.89c1.95,0,3.52,1.58,3.52,3.52v19.93
			c0,1.95-1.58,3.52-3.52,3.52H556.59C554.64,203.3,553.06,201.73,553.06,199.78z"/>
		<path class="st0" d="M301.93,206.19c-19.27,0-36.25-3.97-50.93-11.91c-14.68-7.94-26.11-19.29-34.27-34.07
			c-8.17-14.77-12.25-32.48-12.25-53.13v-7.85c0-19.36,3.85-36.5,11.56-51.41c7.71-14.91,18.7-26.61,32.97-35.1
			C263.27,4.25,280.22,0,299.86,0c13.76,0,26.77,1.88,39.02,5.64c11.36,3.49,21.76,8.99,31.19,16.51c1.4,1.11,2.19,2.84,2.19,4.63
			l0,33.61c0,1.95-1.58,3.52-3.52,3.52h-27.11c-1.81,0-3.32-1.37-3.51-3.17l-1.41-13.94c-0.14-1.41-0.9-2.7-2.1-3.46
			c-2.83-1.79-6.18-3.67-9.01-4.94c-3.49-1.56-7.25-2.75-11.29-3.58c-4.04-0.83-8.4-1.24-13.08-1.24c-10.83,0-20.19,2.62-28.08,7.85
			c-7.89,5.23-13.99,12.71-18.31,22.44c-4.32,9.73-6.47,21.43-6.47,35.1v8.12c0,13.21,2.22,24.75,6.68,34.62
			c4.45,9.87,10.76,17.51,18.93,22.92c8.17,5.42,17.66,8.12,28.49,8.12c5.69,0,11.38-0.62,17.07-1.86
			c4.68-1.02,9.77-2.58,14.18-4.23c1.68-0.63,2.88-2.12,3.07-3.9l1.38-12.44c0.2-1.78,1.71-3.13,3.5-3.13h27.19
			c1.95,0,3.52,1.58,3.52,3.52l0,32.83c0,2.02-0.99,3.92-2.7,4.98c-7.42,4.58-16.45,8.57-27.1,11.95
			C330.63,204.29,317.07,206.19,301.93,206.19z"/>
	</g>
</g>
</svg>
